<svg xmlns="http://www.w3.org/2000/svg" viewBox="0 0 232 48" fill="none">
  <g transform="rotate(-13 24 13)">
    <path d="M17.4 8 A2.6 2.6 0 0 1 20 5.4 L27.2 5.4 L31.4 9.6 L31.4 18 A2.6 2.6 0 0 1 28.8 20.6 L20 20.6 A2.6 2.6 0 0 1 17.4 18 Z" fill="#7CA84F"></path>
    <path d="M27.2 5.4 L27.2 9.6 L31.4 9.6" fill="none" stroke="#16240F" stroke-width="1.4" stroke-linejoin="round" stroke-opacity="0.5"></path>
    <path d="M20.8 13 H27 M20.8 16 H25" stroke="#16240F" stroke-width="1.6" stroke-linecap="round" stroke-opacity="0.62"></path>
  </g>
  <path d="M9.6 21 L12.9 37.6 A3.6 3.6 0 0 0 16.4 40.4 L31.6 40.4 A3.6 3.6 0 0 0 35.1 37.6 L38.4 21 Z" fill="currentColor"></path>
  <ellipse cx="24" cy="21" rx="14.4" ry="3.9" fill="currentColor"></ellipse>
  <ellipse cx="24" cy="21" rx="10.6" ry="2.5" fill="#000000" fill-opacity="0.18"></ellipse>
  <circle cx="38.6" cy="11.4" r="1.7" fill="#7CA84F"></circle>
  <circle cx="42.6" cy="15.4" r="1" fill="#7CA84F" fill-opacity="0.6"></circle>
  <text x="58" y="33" font-family="&#39;Bricolage Grotesque&#39;, system-ui, sans-serif" font-size="26" font-weight="800" letter-spacing="-0.5" fill="#7CA84F">Info<tspan font-weight="600" fill="currentColor">Bucket</tspan></text>
</svg>